# xmcd
#
# Track frame offsets:
#	150
#	15291
#	33492
#	47612
#	67560
#	83484
#	97423
#	112359
#	129696
#	147473
#
# Disc length: 2212 seconds
#
# Revision: 0
# Processed by: cddbd v1.5.2PL0 Copyright (c) Steve Scherf et al.
# Submitted via: dBpowerAMP V4.0
#
DISCID=8408a20a
DTITLE=Ronni Rae Rivers - Just When I Needed You Most
DYEAR=2004
DGENRE=Country
TTITLE0=Just When I Needed You Most
TTITLE1=Rodeo Romeo
TTITLE2=Trouble at the Door
TTITLE3=Haven't Things Changed
TTITLE4=Happy New Year
TTITLE5=Kickin' This Heart Around
TTITLE6=Maybe I'm Right
TTITLE7=Good Guys Finish Last
TTITLE8=You Win ...You Lose
TTITLE9=Long, Long Time
EXTD=David Dwyer
EXTT0=
EXTT1=
EXTT2=
EXTT3=
EXTT4=
EXTT5=
EXTT6=
EXTT7=
EXTT8=
EXTT9=
PLAYORDER=
